<svg xmlns="http://www.w3.org/2000/svg" version="1.1" xmlns:xlink="http://www.w3.org/1999/xlink" xmlns:svgjs="http://svgjs.dev/svgjs" width="1000" height="277" viewBox="0 0 1000 277"><g transform="matrix(1,0,0,1,-0.6060606060606801,-0.09821913664751492)"><svg viewBox="0 0 396 110" data-background-color="#ffffff" preserveAspectRatio="xMidYMid meet" height="277" width="1000" xmlns="http://www.w3.org/2000/svg" xmlns:xlink="http://www.w3.org/1999/xlink"><g id="tight-bounds" transform="matrix(1,0,0,1,0.24000000000003752,0.03900398928240634)"><svg viewBox="0 0 395.5199999999999 109.92199202143519" height="109.92199202143519" width="395.5199999999999"><g><svg viewBox="0 0 600.1465649656171 166.79132768467412" height="109.92199202143519" width="395.5199999999999"><g transform="matrix(1,0,0,1,204.62656496561715,18.564540180254554)"><svg viewBox="0 0 395.52 129.662247324165" height="129.662247324165" width="395.52"><g id="textblocktransform"><svg viewBox="0 0 395.52 129.662247324165" height="129.662247324165" width="395.52" id="textblock"><g><svg viewBox="0 0 395.52 80.13359528487229" height="80.13359528487229" width="395.52"><g transform="matrix(1,0,0,1,0,0)"><svg width="395.52" viewBox="5.650000095367432 -36.900001525878906 203.5900115966797 41.25" height="80.13359528487229" data-palette-color="#0a4d68"><path d="M26-20.85L26-20.85Q27.6-20.85 28.53-19.95 29.45-19.05 29.45-17.45L29.45-17.45Q29.45-17.05 29.4-16.63 29.35-16.2 29.2-15.9L29.2-15.9Q28.55-16 27.75-16.07 26.95-16.15 25.85-16.15L25.85-16.15Q23.6-16.15 21.35-15.75 19.1-15.35 17.05-15.1L17.05-15.1Q14.8-9.8 13.35-5.15 11.9-0.5 11.1 4.05L11.1 4.05Q9.4 3.65 8.1 2.6 6.8 1.55 5.65-0.35L5.65-0.35Q6-1.15 6.5-2.27 7-3.4 7.7-5.13 8.4-6.85 9.38-9.33 10.35-11.8 11.7-15.25L11.7-15.25Q9.6-15.95 8.95-17.7L8.95-17.7Q9.2-17.95 10.35-18.28 11.5-18.6 13.15-19L13.15-19Q13.9-20.95 14.45-22.48 15-24 15.45-25.38 15.9-26.75 16.28-28.08 16.65-29.4 16.95-30.9L16.95-30.9 16.7-30.9Q14.8-30.9 13.63-31.8 12.45-32.7 12.45-34.15L12.45-34.15Q12.45-34.55 12.58-35.1 12.7-35.65 12.9-36.05L12.9-36.05Q13.85-35.9 14.78-35.85 15.7-35.8 17.2-35.8L17.2-35.8Q20.35-35.8 23.1-35.98 25.85-36.15 28.08-36.35 30.3-36.55 31.9-36.73 33.5-36.9 34.35-36.9L34.35-36.9Q35.5-36.9 36.4-35.7 37.3-34.5 37.8-32.3L37.8-32.3Q36.2-32.45 35.23-32.5 34.25-32.55 33.5-32.55L33.5-32.55Q30.95-32.55 28.83-32.33 26.7-32.1 24.8-31.8L24.8-31.8Q24.5-31.35 24.13-30.65 23.75-29.95 23.15-28.68 22.55-27.4 21.63-25.35 20.7-23.3 19.3-20.15L19.3-20.15Q21.25-20.45 23.03-20.65 24.8-20.85 26-20.85ZM66.6-27.55L66.6-27.55Q66.6-25.15 65.52-23.03 64.45-20.9 62.55-19.23 60.65-17.55 58.1-16.4 55.55-15.25 52.55-14.85L52.55-14.85Q53.3-12.6 54.37-10.23 55.45-7.85 56.7-5.65 57.95-3.45 59.3-1.6 60.65 0.25 61.95 1.45L61.95 1.45Q61.7 1.95 61.22 2.45 60.75 2.95 60.12 3.38 59.5 3.8 58.82 4.08 58.15 4.35 57.55 4.35L57.55 4.35Q56.45 4.35 55.45 3.3 54.45 2.25 53.42-0.03 52.4-2.3 51.27-5.93 50.15-9.55 48.8-14.65L48.8-14.65Q48.25-14.65 47.7-14.65 47.15-14.65 46.85-14.75L46.85-14.75Q46.5-14.95 46.1-15.45L46.1-15.45Q44.75-12.55 43.7-10 42.65-7.45 41.82-5.08 41-2.7 40.37-0.48 39.75 1.75 39.3 4.05L39.3 4.05Q37.6 3.65 36.35 2.6 35.1 1.55 34-0.35L34-0.35Q34.2-0.8 34.42-1.23 34.65-1.65 35-2.43 35.35-3.2 35.87-4.4 36.4-5.6 37.27-7.6 38.15-9.6 39.37-12.5 40.6-15.4 42.35-19.55L42.35-19.55Q43.15-21.4 43.72-22.8 44.3-24.2 44.75-25.48 45.2-26.75 45.57-28.03 45.95-29.3 46.35-30.95L46.35-30.95Q44.05-30.15 42.07-29.18 40.1-28.2 38.8-27.1L38.8-27.1Q38.35-27.4 37.87-28 37.4-28.6 37-29.33 36.6-30.05 36.3-30.8 36-31.55 35.95-32.15L35.95-32.15Q37.45-33.15 39.62-34 41.8-34.85 44.25-35.48 46.7-36.1 49.25-36.45 51.8-36.8 54-36.8L54-36.8Q60-36.8 63.3-34.33 66.6-31.85 66.6-27.55ZM53.8-32.7L54.4-31.75Q54.05-31.3 53.3-29.95 52.55-28.6 51.57-26.73 50.6-24.85 49.52-22.65 48.45-20.45 47.45-18.3L47.45-18.3Q51.2-18.3 54.35-19 57.5-19.7 59.8-20.98 62.1-22.25 63.37-23.98 64.65-25.7 64.65-27.8L64.65-27.8Q64.65-30.3 62.85-31.63 61.05-32.95 57.3-32.95L57.3-32.95Q56.45-32.95 55.6-32.88 54.75-32.8 53.8-32.7L53.8-32.7ZM69.4 3.8L69.4 3.8Q67 3.1 66.07 2.4 65.15 1.7 65.15 0.65L65.15 0.65Q65.15-0.15 65.59-1.6 66.05-3.05 66.92-5.03 67.8-7 69.02-9.4 70.25-11.8 71.8-14.55L71.8-14.55Q70.5-14.6 69.47-14.63 68.45-14.65 67.8-14.65L67.8-14.65Q68.09-15.4 69.5-15.95 70.9-16.5 73.2-16.9L73.2-16.9Q75.15-20.15 77.37-23.1 79.59-26.05 81.84-28.53 84.09-31 86.34-32.88 88.59-34.75 90.65-35.85L90.65-35.85Q90.7-36.2 90.72-36.45 90.75-36.7 90.75-36.8L90.75-36.8Q91.45-36.8 92.62-36.45 93.8-36.1 94.92-35.6 96.05-35.1 96.92-34.58 97.8-34.05 97.9-33.7L97.9-33.7Q96.25-30.8 94.65-25.03 93.05-19.25 92-11.2L92-11.2Q91.75-9.2 91.57-6.65 91.4-4.1 91.4-0.95L91.4-0.95Q91.4 0.15 91.4 1.3 91.4 2.45 91.5 3.7L91.5 3.7Q91.4 3.75 91.3 3.75 91.2 3.75 90.9 3.75L90.9 3.75Q90.2 3.75 89.27 3.53 88.34 3.3 87.47 2.98 86.59 2.65 85.97 2.25 85.34 1.85 85.2 1.55L85.2 1.55Q85.15 0.9 85.15 0.28 85.15-0.35 85.15-1.05L85.15-1.05Q85.15-4.15 85.37-7.35 85.59-10.55 86.15-13.95L86.15-13.95Q85.45-14 84.3-14.08 83.15-14.15 81.72-14.2 80.3-14.25 78.67-14.33 77.05-14.4 75.5-14.45L75.5-14.45Q74.3-12.2 73.25-9.98 72.2-7.75 71.45-5.5L71.45-5.5Q70.59-3.1 70.07-0.7 69.55 1.7 69.4 3.8ZM88.7-26.25L88.7-26.25Q88.9-26.95 89.17-28.18 89.45-29.4 89.7-30.75L89.7-30.75Q88.45-30.3 86.92-29.1 85.4-27.9 83.77-26.13 82.15-24.35 80.47-22.13 78.8-19.9 77.25-17.4L77.25-17.4Q81.45-17.75 86.8-17.85L86.8-17.85Q87.2-19.95 87.67-22.03 88.15-24.1 88.7-26.25ZM119.89 3.7L119.89 3.7Q119.79 3.75 119.69 3.75 119.59 3.75 119.29 3.75L119.29 3.75Q118.59 3.75 117.67 3.53 116.74 3.3 115.87 2.98 114.99 2.65 114.37 2.25 113.74 1.85 113.59 1.55L113.59 1.55Q113.54 0.85 113.54 0.1 113.54-0.65 113.54-1.35L113.54-1.35Q113.54-6.95 114.37-13.05 115.19-19.15 117.09-26.25L117.09-26.25Q117.29-26.95 117.52-28.03 117.74-29.1 117.99-30.35L117.99-30.35Q116.79-29.4 115.14-27.33 113.49-25.25 111.67-22.43 109.84-19.6 108.02-16.23 106.19-12.85 104.69-9.38 103.19-5.9 102.12-2.5 101.04 0.9 100.79 3.8L100.79 3.8Q98.39 3.1 97.47 2.4 96.54 1.7 96.54 0.7L96.54 0.7Q96.54-0.2 97.09-1.85 97.64-3.5 98.64-5.75 99.64-8 101.09-10.78 102.54-13.55 104.29-16.75L104.29-16.75Q106.29-20.4 108.22-23.6 110.14-26.8 111.99-29.4 113.84-32 115.62-33.9 117.39-35.8 119.14-36.8L119.14-36.8Q119.84-36.8 121.02-36.45 122.19-36.1 123.32-35.6 124.44-35.1 125.32-34.58 126.19-34.05 126.29-33.7L126.29-33.7Q125.59-32.3 124.64-29.5 123.69-26.7 122.72-23.15 121.74-19.6 120.87-15.63 119.99-11.65 119.49-8L119.49-8Q120.64-10.75 122.17-13.73 123.69-16.7 125.39-19.63 127.09-22.55 128.87-25.3 130.64-28.05 132.34-30.33 134.04-32.6 135.52-34.3 136.99-36 138.14-36.8L138.14-36.8Q138.84-36.8 140.02-36.45 141.19-36.1 142.32-35.6 143.44-35.1 144.32-34.58 145.19-34.05 145.29-33.7L145.29-33.7Q143.69-30.85 142.49-26.75 141.29-22.65 140.47-18.15 139.64-13.65 139.22-9.22 138.79-4.8 138.79-1.3L138.79-1.3Q138.79-0.15 138.79 1.1 138.79 2.35 138.89 3.7L138.89 3.7Q138.19 3.7 137.22 3.53 136.24 3.35 135.32 3.05 134.39 2.75 133.64 2.38 132.89 2 132.59 1.55L132.59 1.55Q132.54 0.85 132.54 0.1 132.54-0.65 132.54-1.35L132.54-1.35Q132.54-6.95 133.37-13.05 134.19-19.15 136.09-26.25L136.09-26.25Q136.29-26.95 136.54-28.15 136.79-29.35 137.04-30.65L137.04-30.65Q135.64-29.95 133.87-27.98 132.09-26 130.27-23.18 128.44-20.35 126.67-16.9 124.89-13.45 123.47-9.88 122.04-6.3 121.07-2.78 120.09 0.75 119.89 3.7ZM166.54-21.3L166.54-21.3Q168.19-21.3 169.12-20.4 170.04-19.5 170.04-17.9L170.04-17.9Q170.04-17.5 169.97-17.07 169.89-16.65 169.79-16.35L169.79-16.35Q169.14-16.45 168.34-16.53 167.54-16.6 166.44-16.6L166.44-16.6Q164.29-16.6 162.09-16.23 159.89-15.85 157.89-15.6L157.89-15.6Q156.74-12.95 155.79-10.48 154.84-8 154.17-5.95 153.49-3.9 153.12-2.4 152.74-0.9 152.69-0.15L152.69-0.15Q156.74-1 160.87-1.6 164.99-2.2 169.54-2.5L169.54-2.5Q170.09-1.65 170.47-0.65 170.84 0.35 170.84 1.5L170.84 1.5Q170.84 1.8 170.84 2.15 170.84 2.5 170.74 2.85L170.74 2.85Q169.34 2.8 167.79 2.78 166.24 2.75 163.74 2.75L163.74 2.75Q162.09 2.75 160.62 2.83 159.14 2.9 157.64 3.05 156.14 3.2 154.47 3.45 152.79 3.7 150.69 4.05L150.69 4.05Q148.39 3.15 146.24-0.35L146.24-0.35Q147.09-2.15 148.62-5.83 150.14-9.5 152.49-15.65L152.49-15.65Q150.24-16.35 149.54-18.15L149.54-18.15Q149.79-18.4 150.99-18.78 152.19-19.15 153.94-19.55L153.94-19.55Q154.69-21.5 155.22-22.95 155.74-24.4 156.14-25.68 156.54-26.95 156.87-28.18 157.19-29.4 157.49-30.85L157.49-30.85Q155.74-30.95 154.74-31.83 153.74-32.7 153.74-34.1L153.74-34.1Q153.74-34.5 153.87-35.05 153.99-35.6 154.14-36L154.14-36Q155.14-35.85 156.07-35.8 156.99-35.75 158.49-35.75L158.49-35.75Q161.64-35.75 164.39-35.93 167.14-36.1 169.37-36.3 171.59-36.5 173.19-36.68 174.79-36.85 175.64-36.85L175.64-36.85Q176.79-36.85 177.69-35.65 178.59-34.45 179.04-32.25L179.04-32.25Q177.49-32.4 176.52-32.45 175.54-32.5 174.79-32.5L174.79-32.5Q172.04-32.5 169.77-32.23 167.49-31.95 165.39-31.65L165.39-31.65Q165.09-31.2 164.72-30.5 164.34-29.8 163.74-28.55 163.14-27.3 162.27-25.4 161.39-23.5 160.14-20.65L160.14-20.65Q162.04-20.95 163.72-21.13 165.39-21.3 166.54-21.3ZM208.94-33.7L208.94-33.7Q209.09-32.85 209.16-32.52 209.24-32.2 209.24-31.65L209.24-31.65Q209.24-30 208.51-28.58 207.79-27.15 206.54-26.55L206.54-26.55Q205.54-27.9 204.09-28.88 202.64-29.85 200.91-30.48 199.19-31.1 197.34-31.4 195.49-31.7 193.74-31.7L193.74-31.7Q191.99-31.7 190.46-31.43 188.94-31.15 187.76-30.68 186.59-30.2 185.91-29.5 185.24-28.8 185.24-27.9L185.24-27.9Q185.39-26.8 186.59-25.68 187.79-24.55 189.54-23.48 191.29-22.4 193.41-21.35 195.54-20.3 197.59-19.35L197.59-19.35Q200.14-18.15 201.99-17.13 203.84-16.1 205.04-14.88 206.24-13.65 206.84-12.1 207.44-10.55 207.44-8.35L207.44-8.35Q207.44-5.8 206.59-3.58 205.74-1.35 204.11 0.3 202.49 1.95 200.19 2.88 197.89 3.8 195.04 3.8L195.04 3.8Q192.24 3.8 188.99 2.95 185.74 2.1 182.91 0.63 180.09-0.85 178.21-2.78 176.34-4.7 176.34-6.85L176.34-6.85Q176.34-7.85 176.91-9.4 177.49-10.95 178.99-12.65L178.99-12.65Q179.14-11.15 180.61-9.1 182.09-7.05 185.04-5.3L185.04-5.3Q187.79-3.7 190.71-2.98 193.64-2.25 196.19-2.25L196.19-2.25Q198.99-2.25 200.74-2.95 202.49-3.65 203.49-4.63 204.49-5.6 204.89-6.6 205.29-7.6 205.34-8.2L205.34-8.2Q205.29-9.2 204.41-10.13 203.54-11.05 202.06-11.93 200.59-12.8 198.64-13.7 196.69-14.6 194.59-15.5L194.59-15.5Q191.44-16.9 189.16-18.13 186.89-19.35 185.41-20.63 183.94-21.9 183.26-23.3 182.59-24.7 182.59-26.5L182.59-26.5Q182.59-29.3 184.29-31.8 185.99-34.3 189.19-35.6L189.19-35.6Q190.79-36.3 192.61-36.6 194.44-36.9 196.19-36.9L196.19-36.9Q199.49-36.9 202.64-36 205.79-35.1 208.94-33.7Z" opacity="1" transform="matrix(1,0,0,1,0,0)" fill="#0a4d68" class="undefined-text-0" data-fill-palette-color="primary" id="text-0"></path></svg></g></svg></g><g transform="matrix(1,0,0,1,0,99.0512139253438)"><svg viewBox="0 0 395.52 30.611033398821213" height="30.611033398821213" width="395.52"><g transform="matrix(1,0,0,1,0,0)"><svg width="395.52" viewBox="1.100000023841858 -35.5 614.3900146484375 47.54999923706055" height="30.611033398821213" data-palette-color="#088395"><path d="M14 0L1.1 0 1.1-0.95 1.85-1.15Q3.85-1.7 3.9-3.6L3.9-3.6Q3.9-5.35 3.93-7.08 3.95-8.8 3.95-10.5L3.95-10.5 3.95-22.45 1.1-22.45 1.1-23.55 2.2-23.75Q3.2-23.9 3.65-24.48 4.1-25.05 4.3-26.1L4.3-26.1Q4.85-28.1 5.78-29.58 6.7-31.05 8-32.3L8-32.3Q9.85-34.1 11.95-34.8 14.05-35.5 16.05-35.5L16.05-35.5Q18-35.5 19.63-34.73 21.25-33.95 21.25-32.1L21.25-32.1Q21.25-30.8 20.48-30.03 19.7-29.25 18.25-29.25L18.25-29.25Q15.95-29.25 14.2-31.95L14.2-31.95 13.6-32.65Q13-33.4 12.4-33.25 11.8-33.1 11.55-32.25L11.55-32.25Q11.15-30.65 10.93-28.5 10.7-26.35 10.65-24L10.65-24 16.4-24 16.4-22.45 10.65-22.45 10.65-10.5Q10.65-8.8 10.68-7.13 10.7-5.45 10.7-3.75L10.7-3.75Q10.7-1.75 12.7-1.3L12.7-1.3 14-0.95 14 0ZM53.05 0L40.55 0 40.55-0.95 41.3-1.2Q42.3-1.45 42.67-2.05 43.05-2.65 43.05-3.65L43.05-3.65 43.05-18.3Q43-19.4 42.65-19.98 42.3-20.55 41.3-20.75L41.3-20.75 40.55-20.95 40.55-21.85 48.7-24.75 49.3-24.2 49.75-19.8 49.75-19.45Q50.5-20.85 51.65-22.05 52.8-23.25 54.15-24 55.5-24.75 56.85-24.75L56.85-24.75Q58.75-24.75 59.7-23.75 60.65-22.75 60.65-21.2L60.65-21.2Q60.65-19.5 59.7-18.63 58.75-17.75 57.4-17.75L57.4-17.75Q55.4-17.75 53.95-19.55L53.95-19.55 53.85-19.65Q53.35-20.25 52.72-20.33 52.1-20.4 51.5-19.7L51.5-19.7Q51-19.2 50.57-18.53 50.15-17.85 49.8-16.95L49.8-16.95 49.8-3.85Q49.8-2.9 50.2-2.27 50.6-1.65 51.55-1.4L51.55-1.4 53.05-0.95 53.05 0ZM92 0.7L92 0.7Q89.15 0.7 87.17-0.93 85.2-2.55 85.2-5.6L85.2-5.6Q85.2-8 87.52-10.03 89.85-12.05 94.85-13L94.85-13Q95.7-13.2 96.82-13.38 97.95-13.55 99.05-13.75L99.05-13.75 99.05-17.3Q99.05-20.7 98.2-22 97.35-23.3 95.5-23.3L95.5-23.3 95.35-23.3Q94.2-23.3 93.52-22.58 92.85-21.85 92.65-20.2L92.65-20.2 92.5-19.55Q92.35-17.55 91.45-16.63 90.55-15.7 89.2-15.7L89.2-15.7Q87.95-15.7 87.12-16.48 86.3-17.25 86.3-18.5L86.3-18.5Q86.3-20.55 87.7-21.95 89.1-23.35 91.42-24.05 93.75-24.75 96.45-24.75L96.45-24.75Q100.9-24.75 103.25-22.6 105.6-20.45 105.6-15.6L105.6-15.6 105.6-4.45Q105.6-2.3 107.65-2.3L107.65-2.3 108.8-2.3 109.3-1.75Q108.4-0.6 107.3 0.03 106.2 0.65 104.3 0.65L104.3 0.65Q102.15 0.65 100.87-0.38 99.6-1.4 99.2-3.1L99.2-3.1Q97.6-1.4 96.05-0.35 94.5 0.7 92 0.7ZM94.9-2.5L94.9-2.5Q95.9-2.5 96.8-2.95 97.7-3.4 99.05-4.45L99.05-4.45 99.05-12.45Q97.75-12.25 96.4-11.95L96.4-11.95Q94.25-11.45 92.92-10.1 91.6-8.75 91.6-6.45L91.6-6.45Q91.6-4.45 92.52-3.48 93.45-2.5 94.9-2.5ZM144.35 0L132.9 0 132.9-1 134-1.3Q134.8-1.55 135.05-2.02 135.3-2.5 135.35-3.3L135.35-3.3 135.35-13.2Q135.35-14.85 135.35-16 135.35-17.15 135.3-18.7L135.3-18.7Q135.3-19.55 135.05-20.03 134.8-20.5 133.95-20.7L133.95-20.7 132.9-20.95 132.9-21.85 141-24.75 141.6-24.2 141.95-20.85Q143.7-22.45 145.85-23.6 148-24.75 150.25-24.75L150.25-24.75Q152.75-24.75 154.15-23.75 155.55-22.75 156.3-20.7L156.3-20.7Q158.2-22.6 160.5-23.68 162.8-24.75 165.05-24.75L165.05-24.75Q168.45-24.75 170.15-23.05 171.85-21.35 171.85-17.7L171.85-17.7 171.85-3.25Q171.85-1.65 173.25-1.25L173.25-1.25 174.2-1 174.2 0 162.95 0 162.95-1 163.85-1.25Q165.2-1.7 165.2-3.3L165.2-3.3 165.2-17.95Q165.2-20.1 164.42-20.88 163.65-21.65 161.9-21.65L161.9-21.65Q160.55-21.65 159.35-21.1 158.15-20.55 156.7-19.4L156.7-19.4Q157-17.9 157-15.95L157-15.95 157-3.25Q157.05-2.4 157.32-1.93 157.6-1.45 158.4-1.25L158.4-1.25 159.25-1 159.25 0 147.95 0 147.95-1 149-1.3Q149.8-1.55 150.07-2.02 150.35-2.5 150.35-3.3L150.35-3.3 150.35-17.9Q150.35-19.95 149.6-20.8 148.85-21.65 147.05-21.65L147.05-21.65Q144.75-21.65 142.1-19.45L142.1-19.45 142.1-3.25Q142.1-1.6 143.5-1.25L143.5-1.25 144.35-1 144.35 0ZM211.2-24.75L211.2-24.75Q214.35-24.75 216.6-23.45 218.85-22.15 220.07-19.88 221.3-17.6 221.3-14.65L221.3-14.65Q221.3-14 221.25-13.43 221.2-12.85 221.05-12.35L221.05-12.35 206-12.35Q206.05-7.2 207.92-4.95 209.8-2.7 213.4-2.7L213.4-2.7Q215.9-2.7 217.45-3.53 219-4.35 220.3-5.85L220.3-5.85 221.1-5.1Q219.6-2.35 217.02-0.83 214.45 0.7 210.9 0.7L210.9 0.7Q207.35 0.7 204.65-0.8 201.95-2.3 200.42-5.13 198.9-7.95 198.9-11.9L198.9-11.9Q198.9-16 200.67-18.85 202.45-21.7 205.27-23.23 208.1-24.75 211.2-24.75ZM210.95-23.3L210.95-23.3Q209.5-23.3 208.42-22.48 207.35-21.65 206.72-19.58 206.1-17.5 206-13.75L206-13.75 214.95-13.75Q215.5-18.8 214.55-21.05 213.6-23.3 210.95-23.3ZM254.94 0.7L254.94 0.7Q252.54 0.7 250.62 0.18 248.69-0.35 246.94-1.3L246.94-1.3 246.94-7.2 248.29-7.2 249.79-4.35Q250.74-2.5 251.97-1.6 253.19-0.7 255.09-0.7L255.09-0.7Q257.44-0.7 258.84-1.73 260.24-2.75 260.24-4.5L260.24-4.5Q260.24-6.1 259.19-7.1 258.14-8.1 255.44-8.95L255.44-8.95 253.24-9.65Q250.29-10.55 248.57-12.38 246.84-14.2 246.84-16.95L246.84-16.95Q246.84-19.1 247.99-20.88 249.14-22.65 251.34-23.7 253.54-24.75 256.69-24.75L256.69-24.75Q258.74-24.75 260.47-24.28 262.19-23.8 263.84-22.95L263.84-22.95 263.54-17.6 262.24-17.6 260.69-20.45Q259.89-22.05 259.07-22.68 258.24-23.3 256.54-23.3L256.54-23.3Q254.74-23.3 253.37-22.38 251.99-21.45 251.99-19.8L251.99-19.8Q251.99-18.25 253.14-17.28 254.29-16.3 256.84-15.45L256.84-15.45 258.99-14.8Q262.64-13.65 264.19-11.75 265.74-9.85 265.74-7.2L265.74-7.2Q265.74-3.65 262.92-1.48 260.09 0.7 254.94 0.7ZM336.89 0L323.99 0 323.99-0.95 324.74-1.15Q326.74-1.7 326.79-3.6L326.79-3.6Q326.79-5.35 326.82-7.08 326.84-8.8 326.84-10.5L326.84-10.5 326.84-22.45 323.99-22.45 323.99-23.55 325.09-23.75Q326.09-23.9 326.54-24.48 326.99-25.05 327.19-26.1L327.19-26.1Q327.74-28.1 328.67-29.58 329.59-31.05 330.89-32.3L330.89-32.3Q332.74-34.1 334.84-34.8 336.94-35.5 338.94-35.5L338.94-35.5Q340.89-35.5 342.52-34.73 344.14-33.95 344.14-32.1L344.14-32.1Q344.14-30.8 343.37-30.03 342.59-29.25 341.14-29.25L341.14-29.25Q338.84-29.25 337.09-31.95L337.09-31.95 336.49-32.65Q335.89-33.4 335.29-33.25 334.69-33.1 334.44-32.25L334.44-32.25Q334.04-30.65 333.82-28.5 333.59-26.35 333.54-24L333.54-24 339.29-24 339.29-22.45 333.54-22.45 333.54-10.5Q333.54-8.8 333.57-7.13 333.59-5.45 333.59-3.75L333.59-3.75Q333.59-1.75 335.59-1.3L335.59-1.3 336.89-0.95 336.89 0ZM375.94 0.7L375.94 0.7Q372.24 0.7 369.47-0.85 366.69-2.4 365.17-5.25 363.64-8.1 363.64-12.05L363.64-12.05Q363.64-16 365.27-18.85 366.89-21.7 369.67-23.23 372.44-24.75 375.94-24.75L375.94-24.75Q379.44-24.75 382.22-23.23 384.99-21.7 386.62-18.88 388.24-16.05 388.24-12.05L388.24-12.05Q388.24-8.1 386.72-5.23 385.19-2.35 382.44-0.83 379.69 0.7 375.94 0.7ZM375.94-0.7L375.94-0.7Q377.74-0.7 378.87-1.68 379.99-2.65 380.49-5.1 380.99-7.55 380.99-11.95L380.99-11.95Q380.99-16.4 380.49-18.88 379.99-21.35 378.87-22.33 377.74-23.3 375.94-23.3L375.94-23.3Q374.14-23.3 373.04-22.33 371.94-21.35 371.42-18.88 370.89-16.4 370.89-11.95L370.89-11.95Q370.89-7.55 371.42-5.1 371.94-2.65 373.04-1.68 374.14-0.7 375.94-0.7ZM425.49 0L412.99 0 412.99-0.95 413.74-1.2Q414.74-1.45 415.11-2.05 415.49-2.65 415.49-3.65L415.49-3.65 415.49-18.3Q415.44-19.4 415.09-19.98 414.74-20.55 413.74-20.75L413.74-20.75 412.99-20.95 412.99-21.85 421.14-24.75 421.74-24.2 422.19-19.8 422.19-19.45Q422.94-20.85 424.09-22.05 425.24-23.25 426.59-24 427.94-24.75 429.29-24.75L429.29-24.75Q431.19-24.75 432.14-23.75 433.09-22.75 433.09-21.2L433.09-21.2Q433.09-19.5 432.14-18.63 431.19-17.75 429.84-17.75L429.84-17.75Q427.84-17.75 426.39-19.55L426.39-19.55 426.29-19.65Q425.79-20.25 425.16-20.33 424.54-20.4 423.94-19.7L423.94-19.7Q423.44-19.2 423.01-18.53 422.59-17.85 422.24-16.95L422.24-16.95 422.24-3.85Q422.24-2.9 422.64-2.27 423.04-1.65 423.99-1.4L423.99-1.4 425.49-0.95 425.49 0ZM495.04 12.05L495.04 12.05Q493.04 12.05 491.89 11.1 490.74 10.15 490.74 8.6L490.74 8.6Q490.74 7.2 491.71 6.38 492.69 5.55 493.89 5.55L493.89 5.55Q495.14 5.55 495.94 6 496.74 6.45 497.34 7.3L497.34 7.3 497.64 7.7Q498.79 9.1 499.79 7.65L499.79 7.65Q500.44 6.8 501.06 5.55 501.69 4.3 502.44 2.25L502.44 2.25 492.94-20.45Q492.59-21.4 492.14-21.93 491.69-22.45 490.79-22.8L490.79-22.8 489.94-23.1 489.94-24 502.29-24 502.29-23.1 501.24-22.8Q500.14-22.45 500.06-21.73 499.99-21 500.39-19.85L500.39-19.85 505.49-6.55 510.39-19.95Q510.79-21.05 510.69-21.8 510.59-22.55 509.44-22.8L509.44-22.8 508.34-23.1 508.34-24 515.79-24 515.79-23.1 514.69-22.75Q513.59-22.45 513.11-21.88 512.64-21.3 512.24-20.2L512.24-20.2 504.24 1.3Q502.24 6.8 500.16 9.43 498.09 12.05 495.04 12.05ZM552.39 0.7L552.39 0.7Q548.69 0.7 545.91-0.85 543.14-2.4 541.61-5.25 540.09-8.1 540.09-12.05L540.09-12.05Q540.09-16 541.71-18.85 543.34-21.7 546.11-23.23 548.89-24.75 552.39-24.75L552.39-24.75Q555.89-24.75 558.66-23.23 561.44-21.7 563.06-18.88 564.69-16.05 564.69-12.05L564.69-12.05Q564.69-8.1 563.16-5.23 561.64-2.35 558.89-0.83 556.14 0.7 552.39 0.7ZM552.39-0.7L552.39-0.7Q554.19-0.7 555.31-1.68 556.44-2.65 556.94-5.1 557.44-7.55 557.44-11.95L557.44-11.95Q557.44-16.4 556.94-18.88 556.44-21.35 555.31-22.33 554.19-23.3 552.39-23.3L552.39-23.3Q550.59-23.3 549.49-22.33 548.39-21.35 547.86-18.88 547.34-16.4 547.34-11.95L547.34-11.95Q547.34-7.55 547.86-5.1 548.39-2.65 549.49-1.68 550.59-0.7 552.39-0.7ZM598.39 0.7L598.39 0.7Q596.44 0.7 594.84-0.03 593.24-0.75 592.31-2.43 591.39-4.1 591.44-6.85L591.44-6.85 591.59-19.4Q591.59-20.5 591.24-21 590.89-21.5 589.99-21.7L589.99-21.7 589.39-21.9 589.39-22.8 597.94-24.45 598.49-23.9 598.24-16.85 598.24-5.5Q598.24-3.8 599.16-3.03 600.09-2.25 601.49-2.25L601.49-2.25Q602.94-2.25 604.11-2.68 605.29-3.1 606.54-3.95L606.54-3.95 606.69-19.35Q606.69-20.5 606.36-20.95 606.04-21.4 605.14-21.65L605.14-21.65 604.59-21.8 604.59-22.7 612.94-24.45 613.49-23.9 613.34-16.85 613.34-3.75Q613.34-2.7 613.61-2.08 613.89-1.45 614.84-1.15L614.84-1.15 615.49-0.95 615.49 0 607.04 0.5 606.59-2.65Q604.89-1.2 602.89-0.25 600.89 0.7 598.39 0.7Z" opacity="1" transform="matrix(1,0,0,1,0,0)" fill="#088395" class="undefined-text-1" data-fill-palette-color="secondary" id="text-1"></path></svg></g></svg></g></svg></g></svg></g><g><svg viewBox="0 0 166.79132768467412 166.79132768467412" height="166.79132768467412" width="166.79132768467412"><g><svg></svg></g><g id="icon-0"><svg viewBox="0 0 166.79132768467412 166.79132768467412" height="166.79132768467412" width="166.79132768467412"><g><path d="M0 83.396c0-46.058 37.338-83.396 83.396-83.396 46.058 0 83.396 37.338 83.395 83.396 0 46.058-37.338 83.396-83.395 83.395-46.058 0-83.396-37.338-83.396-83.395zM83.396 159.565c42.067 0 76.169-34.102 76.169-76.169 0-42.067-34.102-76.169-76.169-76.169-42.067 0-76.169 34.102-76.169 76.169 0 42.067 34.102 76.169 76.169 76.169z" data-fill-palette-color="accent" fill="#088395" stroke="transparent"></path></g><g transform="matrix(1,0,0,1,38.53713322255324,38.53713052772293)"><svg viewBox="0 0 89.71706123956764 89.71706662922826" height="89.71706662922826" width="89.71706123956764"><g><svg xmlns="http://www.w3.org/2000/svg" xmlns:xlink="http://www.w3.org/1999/xlink" version="1.1" x="0" y="0" viewBox="0.5500000715255737 0.500002384185791 126.99999237060547 127" enable-background="new 0 0 128 128" xml:space="preserve" height="89.71706662922826" width="89.71706123956764" class="icon-s-0" data-fill-palette-color="accent" id="s-0"><g fill="#088395" data-fill-palette-color="accent"><g fill="#088395" data-fill-palette-color="accent"><g fill="#088395" data-fill-palette-color="accent"><path fill="#088395" d="M66.9 57.1c0.5 0.7 1.1 1.3 1.7 2 0.6 0.6 1.3 1.2 1.9 1.7-0.1 0.1-0.3 0.3-0.5 0.4l-5.3 3.6-3.7 5.4c-0.1 0.1-0.2 0.3-0.3 0.4 0 0-0.1 0.1-0.1 0.1-0.5-0.7-1.1-1.3-1.7-1.9-0.6-0.6-1.3-1.2-2-1.7l4-5.9L66.9 57.1M66.9 53.1c-0.8 0-1.6 0.2-2.2 0.7l-5.9 4c-0.4 0.3-0.8 0.6-1.1 1.1l-4 5.9c-1.2 1.7-0.8 4.1 0.8 5.4 0.6 0.5 1.1 0.9 1.6 1.4 0.5 0.5 1 1 1.4 1.6 0.7 0.9 1.7 1.4 2.8 1.5 0.1 0 0.2 0 0.3 0 0.9 0 1.8-0.3 2.5-0.9 0.1-0.1 0.2-0.2 0.4-0.3 0.3-0.3 0.6-0.6 0.8-0.9l3.2-4.7 4.7-3.2c0.4-0.3 0.8-0.6 1.2-1 0.7-0.8 1.1-1.9 1-3-0.1-1.1-0.6-2.1-1.5-2.8-0.6-0.5-1.1-0.9-1.6-1.4-0.5-0.5-1-1-1.4-1.6C69.3 53.6 68.1 53.1 66.9 53.1L66.9 53.1z" data-fill-palette-color="accent"></path></g></g><g fill="#088395" data-fill-palette-color="accent"><path fill="#088395" d="M37.1 122.1c-8.3 0-16.2-3.2-22.1-9.1C9.2 107 5.9 99.2 5.9 90.9s3.2-16.2 9.1-22.1c5.9-5.9 13.7-9.1 22.1-9.1 8.3 0 16.2 3.2 22.1 9.1 5.9 5.9 9.1 13.7 9.1 22.1s-3.2 16.2-9.1 22.1C53.3 118.8 45.4 122.1 37.1 122.1zM37.1 63.7c-7.3 0-14.1 2.8-19.2 8s-8 12-8 19.2c0 7.3 2.8 14.1 8 19.2s12 8 19.2 8c7.3 0 14.1-2.8 19.2-8s8-12 8-19.2c0-7.3-2.8-14.1-8-19.2S44.4 63.7 37.1 63.7z" data-fill-palette-color="accent"></path></g><g fill="#088395" data-fill-palette-color="accent"><path fill="#088395" d="M90.8 68.3c-8.3 0-16.2-3.2-22.1-9.1-12.2-12.2-12.2-32 0-44.1 5.9-5.9 13.7-9.1 22.1-9.1s16.2 3.2 22.1 9.1c12.2 12.2 12.2 32 0 44.1C107 65.1 99.2 68.3 90.8 68.3zM90.8 9.9c-7.3 0-14.1 2.8-19.2 8C61 28.5 61 45.8 71.6 56.4c5.1 5.1 12 8 19.2 8 7.3 0 14.1-2.8 19.2-8 10.6-10.6 10.6-27.9 0-38.5C104.9 12.8 98.1 9.9 90.8 9.9z" data-fill-palette-color="accent"></path></g><g fill="#088395" data-fill-palette-color="accent"><path fill="#088395" d="M114.5 22c-0.1 0-0.2 0-0.2 0-0.6-0.1-1.1-0.4-1.4-0.8-0.8-1.2-1.8-2.3-2.8-3.3-1-1-2.1-1.9-3.3-2.8-0.5-0.3-0.7-0.8-0.8-1.4-0.1-0.6 0.1-1.1 0.5-1.5 0.1-0.1 0.2-0.3 0.3-0.4l9.4-9.4c1.2-1.2 2.9-1.9 4.7-1.9s3.4 0.7 4.7 1.9c2.6 2.6 2.6 6.8 0 9.3l-9.4 9.4c-0.1 0.1-0.2 0.2-0.4 0.3C115.4 21.8 114.9 22 114.5 22zM111 13.3c0.7 0.6 1.3 1.1 1.9 1.8 0.6 0.6 1.2 1.2 1.8 1.9l8.1-8.1c1-1 1-2.7 0-3.7-1-1-2.7-1-3.7 0L111 13.3z" data-fill-palette-color="accent"></path></g><g fill="#088395" data-fill-palette-color="accent"><path fill="#088395" d="M7.2 127.5C7.2 127.5 7.2 127.5 7.2 127.5c-1.8 0-3.4-0.7-4.7-2-2.6-2.6-2.6-6.8 0-9.3l9.4-9.3c0.1-0.1 0.3-0.2 0.4-0.3 0.4-0.4 1-0.5 1.5-0.5 0.6 0.1 1.1 0.4 1.4 0.8 0.8 1.2 1.8 2.3 2.8 3.3 1 1 2.1 2 3.3 2.8 0.4 0.3 0.7 0.8 0.8 1.4s-0.1 1.1-0.5 1.5c-0.1 0.1-0.2 0.3-0.3 0.4l-9.4 9.3C10.5 126.8 8.9 127.5 7.2 127.5zM13.3 111.1l-8.1 8c-1 1-1 2.6 0 3.7 0.5 0.5 1.2 0.8 1.9 0.8 0 0 0 0 0 0 0.7 0 1.3-0.3 1.8-0.7l8.1-8c-0.7-0.6-1.3-1.2-1.9-1.8C14.5 112.4 13.9 111.7 13.3 111.1z" data-fill-palette-color="accent"></path></g><g fill="#088395" data-fill-palette-color="accent"><path fill="#088395" d="M26.8 107c-0.3 0-0.5-0.1-0.7-0.3-7.9-7.9-7.9-20.8 0-28.8 0.4-0.4 1-0.4 1.4 0s0.4 1 0 1.4c-7.2 7.2-7.2 18.8 0 25.9 0.4 0.4 0.4 1 0 1.4C27.3 106.9 27.1 107 26.8 107z" data-fill-palette-color="accent"></path></g><g fill="#088395" data-fill-palette-color="accent"><path fill="#088395" d="M79.6 51.8c-0.3 0-0.5-0.1-0.7-0.3-3.8-3.8-5.9-8.9-5.9-14.4 0-5.4 2.1-10.5 5.9-14.4 0.4-0.4 1-0.4 1.4 0s0.4 1 0 1.4c-3.5 3.5-5.4 8.1-5.4 13 0 4.9 1.9 9.5 5.4 13 0.4 0.4 0.4 1 0 1.4C80.1 51.7 79.8 51.8 79.6 51.8z" data-fill-palette-color="accent"></path></g></g></svg></g></svg></g></svg></g></svg></g></svg></g><defs></defs></svg><rect width="395.5199999999999" height="109.92199202143519" fill="none" stroke="none" visibility="hidden"></rect></g></svg></g></svg>